<svg xmlns="http://www.w3.org/2000/svg" viewBox="0 0 800 600" role="img" width="800" height="600"><rect x="0" y="0" width="800" height="600" fill="#dcd8d0"/><rect x="0" y="430" width="800" height="170" fill="#cfccc6"/><rect x="0" y="420" width="800" height="10" fill="#1f2937" opacity="0.10"/><rect x="506" y="130" width="264" height="300" fill="#cfc9bd" rx="6"/><rect x="516" y="142" width="244" height="62" fill="#ded9cf" rx="4"/><line x1="516" y1="142" x2="760" y2="142" stroke="#1f2937" stroke-width="2" opacity="0.35"/><rect x="516" y="214" width="244" height="62" fill="#ded9cf" rx="4"/><line x1="516" y1="214" x2="760" y2="214" stroke="#1f2937" stroke-width="2" opacity="0.35"/><rect x="516" y="286" width="244" height="62" fill="#ded9cf" rx="4"/><line x1="516" y1="286" x2="760" y2="286" stroke="#1f2937" stroke-width="2" opacity="0.35"/><rect x="516" y="358" width="244" height="62" fill="#ded9cf" rx="4"/><line x1="516" y1="358" x2="760" y2="358" stroke="#1f2937" stroke-width="2" opacity="0.35"/><rect x="738" y="300" width="22" height="8" fill="#8b8478" rx="3"/><rect x="0" y="420" width="800" height="10" fill="#1f2937" opacity="0.10"/><circle cx="150" cy="396" r="34" fill="#3f3f46"/><circle cx="150" cy="396" r="15.3" fill="#efeadf"/><circle cx="220" cy="416" r="22" fill="#3f3f46"/><circle cx="220" cy="416" r="9.9" fill="#efeadf"/><rect x="300" y="422" width="180" height="12" fill="#1f2937" rx="10" opacity="0.08"/><rect x="300" y="360" width="180" height="12" fill="#7a7367" rx="3"/><rect x="308" y="372" width="10" height="50" fill="#7a7367"/><rect x="462" y="372" width="10" height="50" fill="#7a7367"/><rect x="324" y="376" width="34" height="30" fill="#a89a86" rx="2"/><rect x="362" y="382" width="44" height="24" fill="#b58e63" rx="2"/><rect x="412" y="374" width="26" height="34" fill="#6f6a61" rx="3"/><rect x="520" y="428" width="78" height="12" fill="#1f2937" rx="10" opacity="0.08"/><rect x="520" y="376" width="78" height="54" fill="#b58e63" rx="3"/><rect x="520" y="376" width="78" height="9" fill="#b58e63" rx="3" opacity="0.75"/><path d="M520 382 L559.0 368 L598 382 Z" fill="#b58e63" stroke-width="2" stroke-linejoin="round"/><line x1="526" y1="403.0" x2="592" y2="403.0" stroke="#1f2937" stroke-width="1.4" opacity="0.35"/><rect x="600" y="428" width="60" height="12" fill="#1f2937" rx="10" opacity="0.08"/><rect x="600" y="396" width="60" height="34" fill="#a37b52" rx="3"/><rect x="600" y="396" width="60" height="9" fill="#a37b52" rx="3" opacity="0.75"/><path d="M600 402 L630.0 388 L660 402 Z" fill="#a37b52" stroke-width="2" stroke-linejoin="round"/><line x1="606" y1="413.0" x2="654" y2="413.0" stroke="#1f2937" stroke-width="1.4" opacity="0.35"/><path d="M690 130 L740 130 L740 400 L690 400 Z" fill="#b59a6f" stroke-width="2" stroke-linejoin="round"/><line x1="690" y1="175" x2="740" y2="175" stroke="#dcd8d0" stroke-width="5"/><line x1="690" y1="220" x2="740" y2="220" stroke="#dcd8d0" stroke-width="5"/><line x1="690" y1="265" x2="740" y2="265" stroke="#dcd8d0" stroke-width="5"/><line x1="690" y1="310" x2="740" y2="310" stroke="#dcd8d0" stroke-width="5"/><line x1="690" y1="355" x2="740" y2="355" stroke="#dcd8d0" stroke-width="5"/></svg>