<svg xmlns="http://www.w3.org/2000/svg" viewBox="0 0 800 600" role="img" width="800" height="600"><rect x="0" y="430" width="800" height="170" fill="#f2efe7"/><rect x="0" y="0" width="800" height="430" fill="#f6f4ee"/><rect x="548" y="96" width="186" height="168" fill="#ffffff" rx="4"/><rect x="556" y="104" width="170" height="152" fill="#cfe8d8" rx="2"/><path d="M556 256 L726 256 L636 430 L470 430 Z" fill="#fdf6e3" stroke-width="2" stroke-linejoin="round" opacity="0.55"/><path d="M300 380 L470 380 L450 466 L320 466 Z" fill="#4b8fd6" stroke-width="2" stroke-linejoin="round"/><rect x="296" y="368" width="178" height="16" fill="#3d7cbe" rx="5"/><path d="M390 368 L400 250 L412 250 L420 368" fill="none" stroke="#b0744c" stroke-width="9" stroke-linejoin="round"/><path d="M400 250 L330 430" fill="none" stroke="#d6d3cd" stroke-width="12" stroke-linejoin="round"/><circle cx="560" cy="330" r="3" fill="#8fd0a8"/><circle cx="582" cy="316" r="2" fill="#8fd0a8"/><circle cx="542" cy="322" r="2" fill="#8fd0a8"/><circle cx="572" cy="348" r="2" fill="#8fd0a8"/><circle cx="240" cy="260" r="3" fill="#8fd0a8"/><circle cx="262" cy="246" r="2" fill="#8fd0a8"/><circle cx="222" cy="252" r="2" fill="#8fd0a8"/><circle cx="252" cy="278" r="2" fill="#8fd0a8"/><rect x="178.6" y="459" width="62.8" height="12" fill="#1f2937" rx="10" opacity="0.08"/><path d="M184 413 L236 413 L230 466 L190 466 Z" fill="#b0744c" stroke-width="2" stroke-linejoin="round"/><rect x="179.6" y="402.4" width="60.8" height="15.6" fill="#c08457" rx="4"/><path d="M210 404 Q192 366 174 327" fill="none" stroke="#1c6b3f" stroke-width="6.6" stroke-linejoin="round"/><circle cx="174.0" cy="326.8" r="8.4" fill="#1c6b3f"/><path d="M210 404 Q210 352 210 303" fill="none" stroke="#1c6b3f" stroke-width="6.6" stroke-linejoin="round"/><circle cx="210.0" cy="302.8" r="8.4" fill="#14532d"/><path d="M210 404 Q228 363 246 322" fill="none" stroke="#1c6b3f" stroke-width="6.6" stroke-linejoin="round"/><circle cx="246.0" cy="322.0" r="8.4" fill="#1c6b3f"/><path d="M210 404 Q201 358 192 312" fill="none" stroke="#1c6b3f" stroke-width="6.6" stroke-linejoin="round"/><circle cx="192.0" cy="312.4" r="8.4" fill="#1c6b3f"/><path d="M210 404 Q220 355 229 308" fill="none" stroke="#1c6b3f" stroke-width="6.6" stroke-linejoin="round"/><circle cx="229.2" cy="307.6" r="8.4" fill="#14532d"/></svg>